<svg id="Layer_1" data-name="Layer 1" xmlns="http://www.w3.org/2000/svg" width="158" height="45" viewBox="0 0 158 45"><defs><style>.cls-1,.cls-2{fill:#ffffff;}.cls-2{fill-rule:evenodd;}.cls-3{fill:#000000;}</style></defs><path class="cls-1" d="M14.33,25.59v.58c0,.17,0,.34-.09.42s-.08.25-.08.33-.08.17-.25.25a1.91,1.91,0,0,1-.59.42,6.56,6.56,0,0,1-1.08.5,6.71,6.71,0,0,1-1.42.33,9.69,9.69,0,0,1-1.75.17A8.54,8.54,0,0,1,5.81,28a6.37,6.37,0,0,1-2.5-1.67,8.61,8.61,0,0,1-1.58-2.76,13,13,0,0,1-.59-3.83,11.83,11.83,0,0,1,.59-4,7.55,7.55,0,0,1,1.66-2.92A8.32,8.32,0,0,1,6,11a8.65,8.65,0,0,1,3.34-.58,8.46,8.46,0,0,1,1.42.08,5.71,5.71,0,0,1,1.25.34,6,6,0,0,1,1,.41c.33.17.5.34.67.42s.17.25.25.34.08.16.08.33.09.25.09.42v1.33c0,.17-.09.34-.09.5s-.08.17-.16.25a.3.3,0,0,1-.25.09.77.77,0,0,1-.51-.25,3.53,3.53,0,0,0-.83-.51c-.33-.16-.75-.33-1.17-.5A4.86,4.86,0,0,0,9.4,13.4a4.22,4.22,0,0,0-1.83.42A4.18,4.18,0,0,0,6.31,15a4.61,4.61,0,0,0-.83,1.92,11.12,11.12,0,0,0-.33,2.5,8.68,8.68,0,0,0,.33,2.67,4.73,4.73,0,0,0,.92,1.84A3.57,3.57,0,0,0,7.82,25a4.64,4.64,0,0,0,1.92.34,5.29,5.29,0,0,0,1.67-.25,9.08,9.08,0,0,0,1.16-.5,8.48,8.48,0,0,0,.84-.5,1.26,1.26,0,0,1,.5-.25.31.31,0,0,1,.25.08c.08,0,.08.08.17.25a.79.79,0,0,1,.08.42A4.52,4.52,0,0,0,14.33,25.59Z"/><path class="cls-1" d="M31.27,26.92a4.66,4.66,0,0,1,.16.75.65.65,0,0,1-.08.42.71.71,0,0,1-.5.17H28.68a1.13,1.13,0,0,1-.58-.09c-.17-.08-.25-.08-.25-.16s-.09-.17-.17-.25l-1.17-3.51H19.92l-1.09,3.42a.46.46,0,0,1-.16.34c-.09.08-.17.16-.25.16a4.73,4.73,0,0,1-.59.09H15.91a.71.71,0,0,1-.5-.17.65.65,0,0,1-.08-.42,4.66,4.66,0,0,1,.16-.75l5.43-15.69c.08-.16.08-.25.17-.33a1,1,0,0,1,.33-.25,1.71,1.71,0,0,1,.67-.08h2.33c.34,0,.59.08.75.08s.34.08.42.25a.6.6,0,0,1,.17.42ZM23.17,14h0l-2.5,7.51h5Z"/><path class="cls-1" d="M48.21,27a1.15,1.15,0,0,1-.09.58,1.6,1.6,0,0,1-.25.42,2.3,2.3,0,0,1-.41.25,1.12,1.12,0,0,1-.5.08H45.45a2.13,2.13,0,0,1-1.5-.42,3.85,3.85,0,0,1-.58-.66,6.29,6.29,0,0,1-.59-1.09l-4.34-8.26c-.25-.5-.5-1-.75-1.59A14.41,14.41,0,0,1,37,14.66h0c0,.66.09,1.33.09,1.92V27.76A.3.3,0,0,1,37,28c-.08.08-.16.16-.25.16s-.25.09-.5.09H34.69c-.17,0-.34-.09-.5-.09s-.17-.08-.25-.16a.3.3,0,0,1-.09-.25V11.9a1,1,0,0,1,.34-.92,1.25,1.25,0,0,1,.92-.33H37a2.45,2.45,0,0,1,.84.08,2.65,2.65,0,0,1,.67.34,1.66,1.66,0,0,1,.5.58,5,5,0,0,1,.5.92L43,19c.17.41.42.75.58,1.16s.42.75.59,1.17a11.28,11.28,0,0,0,.5,1.09c.17.33.33.75.5,1.08h0c0-.67-.08-1.33-.08-2V11.23a.32.32,0,0,1,.08-.25c.08-.08.17-.16.25-.16a1,1,0,0,1,.5-.09h1.59c.16,0,.33.09.5.09s.16.08.25.16a.32.32,0,0,1,.08.25V27Z"/><path class="cls-1" d="M63.73,12.07v.67a3.72,3.72,0,0,1-.08.41,3.93,3.93,0,0,0-.26.34.3.3,0,0,1-.25.08H58.72V27.76a.32.32,0,0,1-.08.25c-.09.08-.17.16-.25.16a1.19,1.19,0,0,1-.59.09H56.13c-.16,0-.41-.09-.58-.09s-.25-.08-.25-.16a.32.32,0,0,1-.08-.25V13.57H50.79a.32.32,0,0,1-.25-.08c-.08-.09-.08-.17-.16-.25a.6.6,0,0,1-.09-.42V11.48a3.36,3.36,0,0,1,.09-.41c.08-.09.08-.17.16-.25a.3.3,0,0,1,.25-.09H63.14a.28.28,0,0,1,.25.09c.09.08.09.16.17.25s.09.25.09.41A5.28,5.28,0,0,1,63.73,12.07Z"/><path class="cls-1" d="M76.16,26.84v.67a3.72,3.72,0,0,1-.08.41c-.08.09-.08.17-.17.25a.28.28,0,0,1-.25.09H66.82a1,1,0,0,1-.75-.25,1.27,1.27,0,0,1-.34-.84V11.73a.86.86,0,0,1,.34-.83,1.13,1.13,0,0,1,.75-.25h8.76a.31.31,0,0,1,.25.08A1,1,0,0,1,76,11a.66.66,0,0,1,.08.42v1.34a3.72,3.72,0,0,1-.08.41c-.09.09-.09.17-.17.25H69.32v4.26h5.34a.31.31,0,0,1,.25.08c.08.09.08.17.17.25a.66.66,0,0,1,.08.42v1.34a3.72,3.72,0,0,1-.08.41c-.09.09-.09.17-.17.25a.29.29,0,0,1-.25.09H69.32v4.92h6.34a.3.3,0,0,1,.25.08c.09.09.09.17.17.25a.66.66,0,0,1,.08.42Z"/><path class="cls-1" d="M91,25.59v.58c0,.17,0,.34-.09.42s-.08.25-.08.33-.08.17-.25.25a5.69,5.69,0,0,1-.58.42,6.6,6.6,0,0,1-2.51.83,9.69,9.69,0,0,1-1.75.17A8.54,8.54,0,0,1,82.5,28,6.37,6.37,0,0,1,80,26.34a8.61,8.61,0,0,1-1.58-2.76,13,13,0,0,1-.59-3.83,11.83,11.83,0,0,1,.59-4,7.55,7.55,0,0,1,1.66-2.92A8.32,8.32,0,0,1,82.67,11,8.65,8.65,0,0,1,86,10.4a8.46,8.46,0,0,1,1.42.08,5.71,5.71,0,0,1,1.25.34,6,6,0,0,1,1,.41c.34.17.5.34.67.42s.17.25.25.34.08.16.08.33.09.25.09.42v1.33c0,.17-.09.34-.09.5s-.08.17-.16.25a.3.3,0,0,1-.25.09.73.73,0,0,1-.5-.25,3.85,3.85,0,0,0-.84-.51c-.33-.16-.75-.33-1.17-.5a4.82,4.82,0,0,0-1.67-.25,4.25,4.25,0,0,0-1.83.42,3.38,3.38,0,0,0-1.42,1.25A5,5,0,0,0,82,17a11.83,11.83,0,0,0-.33,2.51A8.68,8.68,0,0,0,82,22.17,4.69,4.69,0,0,0,82.92,24a3.67,3.67,0,0,0,1.42,1.09,4.64,4.64,0,0,0,1.92.33,4.93,4.93,0,0,0,1.67-.25,8.53,8.53,0,0,0,1.17-.5,7.57,7.57,0,0,0,.83-.5,1.26,1.26,0,0,1,.5-.25.3.3,0,0,1,.25.08c.09,0,.09.09.17.25a.79.79,0,0,1,.08.42A3.16,3.16,0,0,1,91,25.59Z"/><path class="cls-1" d="M107.29,27.76a.32.32,0,0,1-.08.25c-.09.08-.17.16-.25.16a1.19,1.19,0,0,1-.59.09H104.7c-.16,0-.41-.09-.58-.09s-.25-.08-.25-.16a.3.3,0,0,1-.09-.25v-7.1H97.19v7.1a.32.32,0,0,1-.08.25c-.08.08-.17.16-.25.16a1.19,1.19,0,0,1-.59.09H94.61c-.17,0-.42-.09-.59-.09s-.25-.08-.25-.16a.32.32,0,0,1-.08-.25V11.15a.31.31,0,0,1,.08-.25c.08-.08.17-.17.25-.17a1.3,1.3,0,0,1,.59-.08h1.66c.25,0,.42.08.59.08s.25.09.25.17a.31.31,0,0,1,.08.25v6.43h6.59V11.15a.29.29,0,0,1,.09-.25c.08-.08.17-.17.25-.17a1.27,1.27,0,0,1,.58-.08h1.67c.25,0,.42.08.59.08s.25.09.25.17a.31.31,0,0,1,.08.25Z"/><path class="cls-1" d="M13.16,32.68a.86.86,0,0,1,.58.5v.25a2.12,2.12,0,0,0-.25.75l.34.67v.25c0,.17-.25.5-.67,1-.09.75-.17,1.17-.25,1.17l.08.08-.25,1.84.08.08v.09c-.08,1.17-.25,1.75-.5,1.75-.41-.08-.58-.17-.58-.42l.58-4.34h-.08a3.84,3.84,0,0,1-3.5-2.5v-.08l.16-.25H9c.33,0,.75.5,1.25,1.41a2.71,2.71,0,0,0,1.67.76h.58C12.74,33.68,13,32.68,13.16,32.68Z"/><path class="cls-1" d="M15.33,36.6c1.5.34,2.25,1.09,2.25,2.17-.67.67-1.17,1-1.67,1a1.65,1.65,0,0,1-1.42-1.16c-.08,0-.16-.34-.25-1S14.58,36.6,15.33,36.6Zm-.34,1,.25.84-.33-.5a2.32,2.32,0,0,0,.83,1.17c.67-.25.92-.5.92-.75-.08-.59-.5-.92-1.33-1.09C15.16,37.35,15,37.44,15,37.6Z"/><path class="cls-1" d="M18.25,36.6h.25l.25.25V37a6.39,6.39,0,0,0-.33,1.59l.16.41h.17c.58,0,.92-.75.92-2.17l.25-.16H20c.25,0,.33.16.5.41v1.17l.08,1.09-.5.33-.5-.17a1,1,0,0,1-.75.34c-.83,0-1.25-.5-1.25-1.42v-.17A3.19,3.19,0,0,1,18.25,36.6Z"/><path class="cls-1" d="M22.84,36.44c.42.08.67.25.67.58a1.22,1.22,0,0,1-.25.33L23,37.27l-1.08,2.34-.42.08h-.16a2.38,2.38,0,0,1-.67-1.75v-.25c0-.42.08-.67.17-.67H21c.25,0,.42.5.42,1.42h.08C22.09,37.1,22.5,36.44,22.84,36.44Z"/><path class="cls-1" d="M30.27,32.85h0l.16.08.09-.08h.33a2.13,2.13,0,0,1,1.67,1.25v.5a1.24,1.24,0,0,1-.17.5L32.27,35H32.1v.08h.17l-.5.84-.34.16v.17c1.84.58,2.92,1.25,3.42,2.17v.17l-.16.58h-.42c-.25.33-1.33.75-3.34,1.25a19,19,0,0,1-2.83.25H28c-.42,0-.75-.33-1-.92a1.47,1.47,0,0,1,.5-.5h.08l.17.59.09-.09h.08a.19.19,0,0,1,.17.17h.16l.34.08,2-.25.08.09a5.22,5.22,0,0,1,1.75-.5c1.09-.42,1.67-.75,1.76-1v-.09c-.59-.67-1.92-1.17-3.76-1.58l-.08-.09a11.91,11.91,0,0,0,.42,2.17.73.73,0,0,1-.5.25H30.1a3.57,3.57,0,0,1-2.17-1.92,4.06,4.06,0,0,1-.42-1.58C27.26,34.18,28.26,33.27,30.27,32.85ZM29,34.1,28.76,34c-.66.5-1.08.91-1.08,1.33.17,1.59.83,2.42,1.92,2.76h.08l-.17-1.42v-.75l.17-2.17Zm1.09-.5a.7.7,0,0,0,.33.58,9.78,9.78,0,0,1-.25,1.42l.17.25q1.5-.87,1.5-1.5V34a1,1,0,0,0-.92-.5h-.41Z"/><path class="cls-1" d="M36.52,36.6h.25c.25,0,.42.17.59.42v.33a2.75,2.75,0,0,1-.59,1.17c0,.25-.08.42-.16.42h-.17L36,38.61v-.17a3.35,3.35,0,0,1,.59-1.17v-.08c-.75.5-1.09,1-1.09,1.5v.08a.47.47,0,0,0,.25.42H36a14.2,14.2,0,0,0,2.51-.58h.16v.08a5.32,5.32,0,0,1-2.42,1h-.41c-.75-.08-1.09-.42-1.09-.92v-.25c0-.58.5-1.25,1.5-1.92Z"/><path class="cls-1" d="M39.53,36.6h.58c.5,0,.67.25.67.75l-.25.09L40,37.35l-.09.09h-.08l-.09-.09h-.08l-.17.09-.08-.09v.09l-.08-.09h-.09l-.41.25c0,.17.5.59,1.42,1.34a1,1,0,0,1,.33.67l-.25.25c-1.09,0-1.67-.25-1.67-.75V39l.25-.33a2.65,2.65,0,0,1-.92-1.42A1.62,1.62,0,0,1,39.53,36.6Zm-.09,2.26.09.08.08.08.17.09-.34-.25Z"/><path class="cls-1" d="M41.7,34.6H42c.17,0,.33.75.58,2.25l.09.25.75-.08c1.08,0,1.58.17,1.58.42l-.08.16-.08-.08-.25.17V37.6h-.09l-.17.09v0h-.16V37.6l-1.34.17a7.44,7.44,0,0,1,.42,1.59.8.8,0,0,1-.5.41A3,3,0,0,1,41,38.86a1.26,1.26,0,0,1-.25-.5c0-.34.41-.67,1.25-1v-.16a11.06,11.06,0,0,1-.42-2.09v-.33Zm-.17,3.84h0c.42.33.67.5.84.5h.08c-.17-.67-.25-1-.42-1H42l-.17.17A.43.43,0,0,1,41.53,38.44Z"/><path class="cls-1" d="M49.21,32.85h.17c.16.08.25.16.25.33l-.09.09v.08a1.12,1.12,0,0,0,.17.25l-.08.08v.17l.08.08V34c-.08,0-.25.5-.33,1.58l.08.17h-.08l.08.17c1.58-.25,2.34-.51,2.34-.76.16-1.33.33-2.08.66-2.08h.09c.41,0,.58.25.58.83l-.17.42c.09,0,.17.17.25.42l-.08.16.08.09v.08a1.91,1.91,0,0,1-.41.59,3.11,3.11,0,0,0-.17,1.25v.58l-.08.08.08.17-.08.17.08-.34v.09l-.08.08v.08c.08,0,.16.34.33,1.09l.58,1c0,.08-.16.08-.41.17-.75,0-1.25-1.34-1.34-3.92v-.34h-.33l-1.92.5v.5l.08.25-.08.09.17.08v.08l-.09.09v.08c.09,0,.17.42.42,1.17l.42.92h-.09l-.16.08c-.59,0-.92-.67-1.09-1.92l-.17-1.33-.41.08v-.08c-.75.25-1.17.41-1.17.58s-.17.25-.42.25c0-.08-.17-.25-.5-.5v-.25a9.56,9.56,0,0,1,2.42-.67l.08-.08V35.1A3.39,3.39,0,0,1,49.21,32.85Z"/><path class="cls-1" d="M54.63,36.6c1.5.34,2.26,1.09,2.26,2.17-.67.67-1.17,1-1.67,1a1.63,1.63,0,0,1-1.42-1.16c-.09,0-.17-.34-.25-1S53.88,36.6,54.63,36.6Zm-.33,1,.25.84L54.3,38a2.32,2.32,0,0,0,.83,1.17c.67-.25.92-.5.92-.75-.08-.59-.5-.92-1.33-1.09C54.47,37.35,54.3,37.44,54.3,37.6Z"/><path class="cls-1" d="M58.39,36.6H59c.5,0,.67.25.67.75l-.25.09-.58-.09-.09.09h-.08l-.09-.09h-.08l-.17.09-.08-.09v.09l-.08-.09h-.09l-.41.25c0,.17.5.59,1.42,1.34a1,1,0,0,1,.33.67l-.08.08c-1.09,0-1.67-.25-1.67-.75v-.08l.25-.34A2.55,2.55,0,0,1,57,37.1C57.05,36.77,57.55,36.6,58.39,36.6Zm-.09,2.26.09.08.08.08.17.09-.34-.25Z"/><path class="cls-1" d="M60.56,34.6h.25c.16,0,.33.75.58,2.25l.09.25.75-.08c1.08,0,1.58.17,1.58.42l-.08.16-.08-.08-.17.17-.09-.09h-.08l-.17.09V37.6l-.08.09h-.17V37.6l-1.33.17A7.44,7.44,0,0,1,62,39.36a.8.8,0,0,1-.5.41,3,3,0,0,1-1.76-.91,1.43,1.43,0,0,1-.25-.5c0-.34.42-.67,1.25-1v-.16a10.8,10.8,0,0,1-.41-2.09v-.33Zm-.17,3.84h0c.42.33.67.5.84.5h.08c-.17-.67-.25-1-.42-1h-.08l-.25.17A.33.33,0,0,1,60.39,38.44Z"/><path class="cls-1" d="M74.58,32.76h.83l.25.09.25-.09v.17l-.16.08v-.08l-.09.08h-.08l-.08-.08h-.09l-.08.08v.09l-.42-.17-.17.17h-.08l.08-.09v-.08h-.25v.17h-.16l-.09-.17L74,33.1h-.08l-.17-.17c0,.17,0,.17-.08.17h-.17v0h-.16a.52.52,0,0,1-.17.42h-.08l.08-.17h-.08v.08h-.26c-.08,0-.08-.08-.08-.16h-.08c0,.16-.17.25-.5.33,0,.17,0,.17-.09.17h-.16V33.6h-.25l.08.08v.09l-.08.16h-.09l-.16-.16h-.09l.09.08V34a11.08,11.08,0,0,0-1.84.66l.33.42v.17l-.75.58-.66.92v.17h.08a21.4,21.4,0,0,1,5.17-1.51l.09.26c0,.41-.42.58-1.17.66l-.09-.08-1.66.42-.09-.09a4.15,4.15,0,0,1-1.08.5l-.09.17v.08a.18.18,0,0,1,.17.17c0,.08-.17.17-.42.25-.58,0-.91-.25-.91-.75H68.4l-.17.83v.34c0,.42.34.67,1,.67h.41a6.3,6.3,0,0,0,3.43-1h.08c.08,0,.17.17.25.42h-.08l.08.34h-.08l-.25.08L73,38.61c0,.16,0,.16-.08.16l-.09-.08c-.41.42-1.5.67-3.33.92a2.07,2.07,0,0,1-1.92-.92l-.17-.75a5.84,5.84,0,0,1,1.17-2.84h0L68.32,35l-.09.08a.75.75,0,0,1-.25-.5v-.17a5,5,0,0,1,1.59-.66l.17.08c.25-.08.41-.17.41-.25l.17.08,2.42-.58.17.08.83-.17v.09Z"/><path class="cls-1" d="M75.08,36.52h.16c.17,0,.26.17.26.5l.16.17A2.07,2.07,0,0,1,77,36.6h.08a.51.51,0,0,1,.5.25V37l-.25.33h-.08l-.42-.08a2.25,2.25,0,0,0-.92.5h-.08v-.08l.58-.5h-.16a2.5,2.5,0,0,0-.59.5c.42.92.84,1.33,1.17,1.33l.33-.58.09.17c0,.58-.17.91-.5.91l.08.17a4,4,0,0,1-1.5-1.33c-.09,0-.09-.09-.09-.17a1.45,1.45,0,0,0-.66,1.17v.25l-.09.08h-.16a.5.5,0,0,1-.25-.5A2.67,2.67,0,0,1,75,37.6l-.16-1Z"/><path class="cls-1" d="M79.75,36.6c.84.17,1.25.59,1.25,1.17v.08c0,.59-.41,1.17-1.25,1.67l-.08-.08-.09.08h-.25v.09a19.7,19.7,0,0,1,.25,2.5c0,.08-.08.25-.33.42a1.4,1.4,0,0,1-1.33-1,1.7,1.7,0,0,1-.26-1C77.66,37.94,78.33,36.6,79.75,36.6ZM78.08,39h0l.09.42-.09.08.09.09v.08l-.09.08.09.09v.08l-.09.08c.17,1.17.42,1.84.75,1.84l.09-.08-.09-.17c0-.5-.16-1.59-.41-3.34l.16-.08h.09l.08.08.08-.08h.09c.25.08.41.42.41.83,0,.17,0,.25.09.25.58-.5.92-.91.92-1.16V37.6a.85.85,0,0,0-.67-.41c-.75,0-1.25.58-1.59,1.83Z"/><path class="cls-1" d="M83,36.6h.25c.25,0,.41.17.58.42v.33a2.81,2.81,0,0,1-.58,1.17c0,.25-.09.42-.17.42h-.17l-.42-.33v-.17a3.35,3.35,0,0,1,.59-1.17v-.08c-.75.5-1.09,1-1.09,1.5v.08a.47.47,0,0,0,.25.42h.25A14,14,0,0,0,85,38.61h.17v.08a5.37,5.37,0,0,1-2.42,1h-.42c-.75-.08-1.09-.42-1.09-.92v-.25c0-.58.5-1.25,1.51-1.92Z"/><path class="cls-1" d="M86.68,36.44c.41.08.67.25.67.58a1.05,1.05,0,0,1-.26.33l-.25-.08-1.08,2.34-.42.08h-.16a2.38,2.38,0,0,1-.67-1.75v-.25c0-.42.08-.67.16-.67h.17c.25,0,.42.5.42,1.42h.08C85.93,37.1,86.34,36.44,86.68,36.44Z"/><path class="cls-1" d="M87.68,33h.25a.45.45,0,0,1,.5.51v.25A.39.39,0,0,1,88,34c-.16,0-.33-.17-.5-.5C87.51,33.18,87.6,33,87.68,33Zm0,3.59H88c.09,0,.17.25.34.5l-.09,1.09a2.53,2.53,0,0,0,.42,1.17v.16l-.17.25h-.16q-.75,0-.75-1.5V37.6C87.43,36.94,87.51,36.6,87.68,36.6Z"/><path class="cls-1" d="M90.43,36.6h.25c.25,0,.42.17.59.42v.33a2.75,2.75,0,0,1-.59,1.17c0,.25-.08.42-.16.42h-.17l-.42-.33v-.17a3.35,3.35,0,0,1,.59-1.17v-.08c-.75.5-1.09,1-1.09,1.5v.08a.45.45,0,0,0,.25.42h.25a14.2,14.2,0,0,0,2.51-.58h.16v.08a5.37,5.37,0,0,1-2.42,1h-.41c-.76-.08-1.09-.42-1.09-.92v-.25c0-.58.5-1.25,1.5-1.92Z"/><path class="cls-1" d="M92.19,36.52h.25a.62.62,0,0,1,.33.58l-.08.25.08,1.17h.08c.42-1,.84-1.5,1.17-1.5s.5.58.75,1.75c.17.42.34.59.59.59l.25-.09.25.17v.25c0,.17-.17.25-.59.33H95a1.9,1.9,0,0,1-.67-.75A5.28,5.28,0,0,1,93.94,38c-.09,0-.17.25-.42.67-.42.75-.75,1.08-1,1.08s-.42-.41-.42-1.16V36.69Z"/><path class="cls-1" d="M97.69,36.94h.17a.54.54,0,0,1,.58.5c0,.16-.41.41-1.33.5l-.75.42v.33c0,.25.41.33,1.17.42l2-.17c.17.08.25.17.25.25a3.37,3.37,0,0,1-2.42.67c-1.25,0-1.84-.5-1.84-1.59C95.52,37.69,96.27,37.27,97.69,36.94Z"/><path class="cls-1" d="M101.36,36.6h.25c.26,0,.42.17.59.42v.33a2.75,2.75,0,0,1-.59,1.17c0,.25-.08.42-.16.42h-.17l-.42-.33v-.17a3.35,3.35,0,0,1,.59-1.17v-.08c-.75.5-1.09,1-1.09,1.5v.08a.47.47,0,0,0,.25.42h.25a14.2,14.2,0,0,0,2.51-.58h.16v.08a5.28,5.28,0,0,1-2.42,1h-.41c-.75-.08-1.09-.42-1.09-.92v-.25c0-.58.5-1.25,1.5-1.92Z"/><path class="cls-1" d="M152.44,21.75a19.24,19.24,0,1,1-19.2-19.28A19.24,19.24,0,0,1,152.44,21.75Z"/><path class="cls-2" d="M150.85,9.57V9.23a.79.79,0,0,1,.08-.42A2.86,2.86,0,0,1,152.19,7a3.77,3.77,0,0,1,1.25-.5h.67a.75.75,0,0,1,.41.08,2.74,2.74,0,0,1,1.75,1.09A2.62,2.62,0,0,1,156.86,9v.67a.79.79,0,0,1-.08.42,2.86,2.86,0,0,1-1.26,1.83,3.77,3.77,0,0,1-1.25.5h-.67a.75.75,0,0,1-.41-.08,2.79,2.79,0,0,1-1.76-1.09,2.7,2.7,0,0,1-.58-1.33Zm.75-.09a2.17,2.17,0,1,0,2.09-2.25A2.27,2.27,0,0,0,151.6,9.48Z"/><path class="cls-2" d="M152.77,8.06h1a1.35,1.35,0,0,1,.59.09.88.88,0,0,1,.5.58,1.05,1.05,0,0,1-.17.84l-.25.25a9,9,0,0,1,.67.91h-.75c-.17-.25-.34-.41-.51-.66l-.08-.09h-.42c-.08,0-.08,0-.08.09v.66h-.58C152.77,9.9,152.77,9,152.77,8.06Zm.58,1V9.4a.08.08,0,0,0,.09.08h.5c.33,0,.42-.17.42-.5,0-.17-.17-.25-.34-.33h-.58v.08C153.35,8.81,153.35,8.9,153.35,9.06Z"/><path class="cls-3" d="M123.65,26.76a2.55,2.55,0,0,1-.5,1.83,2.44,2.44,0,0,1-1.76.5,2.08,2.08,0,0,1-1.67-.5,2.91,2.91,0,0,1-.5-1.75,2.58,2.58,0,0,1,.5-1.84,2.48,2.48,0,0,1,1.76-.5,2.25,2.25,0,0,1,1.67.5A2.35,2.35,0,0,1,123.65,26.76Z"/><path class="cls-3" d="M131.32,10.73a2.59,2.59,0,0,1-.41,1.59,2.71,2.71,0,0,1-1.67.42,2.51,2.51,0,0,1-1.67-.42,2.14,2.14,0,0,1-.42-1.5,2.61,2.61,0,0,1,.42-1.59,2.67,2.67,0,0,1,1.67-.42,2.53,2.53,0,0,1,1.67.42A2.5,2.5,0,0,1,131.32,10.73ZM131,28.34a.31.31,0,0,1-.08.25.43.43,0,0,1-.34.17,1.25,1.25,0,0,1-.58.08h-1.84c-.25,0-.42-.08-.58-.08s-.25-.08-.34-.17a.31.31,0,0,1-.08-.25V15.24a.31.31,0,0,1,.08-.25.47.47,0,0,1,.34-.17,1.25,1.25,0,0,1,.58-.08c.25,0,.5-.08.92-.08a3.29,3.29,0,0,1,.92.08c.25,0,.42.08.58.08s.25.09.34.17a.31.31,0,0,1,.08.25Z"/><path class="cls-3" d="M147.18,28.34a.31.31,0,0,1-.08.25.43.43,0,0,1-.34.17,1.27,1.27,0,0,1-.58.08h-1.84c-.25,0-.42-.08-.58-.08s-.25-.08-.34-.17a.31.31,0,0,1-.08-.25V20.83a5.82,5.82,0,0,0-.17-1.5,3.22,3.22,0,0,0-.41-.92,1.48,1.48,0,0,0-.67-.58,1.77,1.77,0,0,0-1-.25,2.41,2.41,0,0,0-1.42.5,6.24,6.24,0,0,0-1.5,1.5v8.76a.29.29,0,0,1-.09.25.4.4,0,0,1-.33.17,1.3,1.3,0,0,1-.59.08h-1.83c-.25,0-.42-.08-.59-.08s-.25-.08-.33-.17a.31.31,0,0,1-.08-.25V15.24a.31.31,0,0,1,.08-.25c.08-.08.17-.17.25-.17a.94.94,0,0,1,.5-.08h1.5c.17,0,.34.08.5.08s.17.09.26.17a.31.31,0,0,1,.08.25v1.5A10.42,10.42,0,0,1,139.75,15a4.59,4.59,0,0,1,2.34-.58,5.69,5.69,0,0,1,2.25.41,5.14,5.14,0,0,1,1.5,1.17,4.32,4.32,0,0,1,.84,1.75,10.72,10.72,0,0,1,.25,2.42v8.18Z"/></svg>